<?xml version="1.0" encoding="utf-8"?>

<!-- Uploaded to: SVG Repo, www.svgrepo.com, Generator: SVG Repo Mixer Tools -->
<svg version="1.1" id="Icons" xmlns="http://www.w3.org/2000/svg" xmlns:xlink="http://www.w3.org/1999/xlink" 
	 viewBox="0 0 32 32" xml:space="preserve">
<style type="text/css">
	.st0{fill:none;stroke:#000000;stroke-width:2;stroke-linecap:round;stroke-linejoin:round;stroke-miterlimit:10;}
</style>
<path class="st0" d="M12.4,28h7.2c0.9,0,1.8,0.4,2.4,1l0,0c0.6,0.6,1.5,1,2.4,1h3.4c0.6,0,1.1-0.6,1-1.2L24.6,5.3
	c-0.3-1.9-2-3.3-3.9-3.3h-9.3C9.4,2,7.8,3.4,7.4,5.3L3.2,28.8c-0.1,0.6,0.4,1.2,1,1.2h3.4c0.9,0,1.8-0.4,2.4-1l0,0
	C10.6,28.4,11.5,28,12.4,28z"/>
<path class="st0" d="M18.5,8h-5C12.7,8,12,7.3,12,6.5v0C12,5.7,12.7,5,13.5,5h5C19.3,5,20,5.7,20,6.5v0C20,7.3,19.3,8,18.5,8z"/>
<path class="st0" d="M14.3,13l-5,8c-0.8,1.3,0.2,3,1.7,3H21c1.6,0,2.6-1.7,1.7-3l-5-8C17,11.7,15,11.7,14.3,13z"/>
<line class="st0" x1="16" y1="16" x2="16" y2="18"/>
<g>
	<path d="M16,22c-0.1,0-0.3,0-0.4-0.1c-0.1-0.1-0.2-0.1-0.3-0.2C15.1,21.5,15,21.3,15,21c0-0.3,0.1-0.5,0.3-0.7
		c0.1-0.1,0.2-0.2,0.3-0.2c0.4-0.2,0.8-0.1,1.1,0.2c0.2,0.2,0.3,0.4,0.3,0.7c0,0.1,0,0.1,0,0.2c0,0.1,0,0.1-0.1,0.2
		c0,0.1-0.1,0.1-0.1,0.2c0,0-0.1,0.1-0.1,0.1C16.5,21.9,16.3,22,16,22z"/>
</g>
</svg>