<?xml version="1.0" ?>

<!-- Uploaded to: SVG Repo, www.svgrepo.com, Generator: SVG Repo Mixer Tools -->
<svg fill="#000000" width="800px" height="800px" viewBox="0 0 512 512" version="1.1" xml:space="preserve" xmlns="http://www.w3.org/2000/svg" xmlns:xlink="http://www.w3.org/1999/xlink">

<g id="Safety_Glasses">

<g id="XMLID_1735_">

<path d="M101.315,125.098c14.171-40.492,52.517-67.728,95.417-67.728c6.39,0,11.589-5.226,11.589-11.617    c0-6.39-5.199-11.606-11.589-11.606c-53.714,0-101.214,34.321-118.2,85.277L27.365,273h22.213L101.315,125.098z" id="XMLID_1736_"/>

<path d="M315.268,57.312c42.901,0,81.246,27.295,95.417,67.787L462.422,273h22.214l-51.167-153.584    c-16.986-50.957-64.487-85.225-118.2-85.225c-6.39,0-11.589,5.171-11.589,11.561C303.678,52.143,308.878,57.312,315.268,57.312z" id="XMLID_1781_"/>

<path d="M497.941,293H13.543c-6.39,0-11.589,5.11-11.589,11.5c0,6.39,5.199,11.5,11.589,11.5h484.915    c3.174,0,6.136-1.287,8.342-3.572c2.203-2.283,3.354-5.19,3.24-8.374C509.821,297.902,504.393,293,497.941,293z" id="XMLID_1782_"/>

<path d="M34,433.665C34,457.881,53.982,478,78.197,478h96.984C199.397,478,219,457.881,219,433.665v-37.716    c0-20.348,16.651-36.902,37-36.902c20.348,0,37,16.554,37,36.902v37.716C293,457.881,312.603,478,336.819,478h96.984    C458.018,478,478,457.881,478,433.665V336H34V433.665z" id="XMLID_1783_"/>

</g>

</g>

<g id="Layer_1"/>

</svg>